<?xml version="1.0" encoding="utf-8"?>
<!-- Generator: Adobe Illustrator 23.0.2, SVG Export Plug-In . SVG Version: 6.00 Build 0)  -->
<svg version="1.1" id="Layer_1" xmlns="http://www.w3.org/2000/svg" xmlns:xlink="http://www.w3.org/1999/xlink" x="0px" y="0px"
	 viewBox="0 0 630 107" style="enable-background:new 0 0 630 107;" xml:space="preserve">
<style type="text/css">
	.st0{fill-rule:evenodd;clip-rule:evenodd;fill:#040707;}
</style>
<path class="st0" d="M201.3,82.9V38.6H174v13.3h8.9v25.9c-3.7,2.7-7.1,4.1-10.2,4.1c-2.3,0-3.9-0.5-4.8-1.6c-0.9-1-1.3-3-1.3-5.9
	V38.6h-26.9v13.3h8.6v27.3c0,5.7,1.6,10.1,4.7,13.2c3.2,3.1,7.5,4.7,13.1,4.7c5.7,0,11.3-1.9,16.8-5.7v4.9h27.7V82.9H201.3
	L201.3,82.9z M274.7,82.9V13.5h-27.4v13.3h9V45c-4-5.1-10.1-8-16.6-7.8c-7,0-12.9,2.9-17.7,8.6s-7.3,12.9-7.3,21.3
	c0,8.3,2.4,15.3,7.1,21.2c4.7,5.8,10.7,8.7,17.8,8.7c6,0,11.5-2.6,16.7-7.7v6.9h27.8V82.9H274.7z M253,79c-2.1,2.3-5,3.6-8.1,3.6
	c-3.4,0.1-6.6-1.5-8.4-4.4c-2-3.3-3-7.1-2.9-10.9c0-4.6,1-8.2,2.9-11c1.9-2.8,5-4.3,8.4-4.2c3.1,0,6,1.3,8.1,3.5
	c2.4,2.3,3.5,6.3,3.5,11.8C256.5,72.7,255.3,76.6,253,79z M340.6,89.9c5.8-5.4,8.7-12.8,8.7-22c0-9.4-2.9-16.7-8.7-22.1
	c-5.8-5.4-13-8.1-21.5-8.1c-8.5,0-15.7,2.7-21.5,8.1s-8.8,12.7-8.8,22.1c0,9.4,2.9,16.7,8.8,22.1s13,8.1,21.5,8.1
	C327.7,98.1,334.9,95.4,340.6,89.9L340.6,89.9z M310.4,79.4c-2-3.3-3-7.2-2.8-11.1c0-10.9,3.8-16.4,11.4-16.4
	c3.3-0.1,6.5,1.4,8.4,4.1c2.1,2.8,3.1,6.6,3.1,11.5c0,5.6-1.1,9.7-3.2,12.3c-2,2.6-5.1,4-8.3,3.9C315.5,84,312.3,82.3,310.4,79.4
	L310.4,79.4z M372.6,96.2v-2.9c2.5,2.8,7.2,4.2,14.1,4.2c7.4,0,13.1-1.8,17.1-5.4c4-3.5,6.2-8.5,6-13.8c0.1-3.7-1-7.2-3.2-10.2
	c-2.1-2.8-5.1-5-8.5-6.1c-5.2-1.6-10.5-2.9-15.9-3.7c-4.5-0.8-7.3-1.5-8.4-2.1c-1-0.4-1.6-1.4-1.6-2.5c0-2.9,2.7-4.4,8-4.4
	c7.2,0,11.4,2,12.6,6H406V38.6h-13.2v2c-4.6-1.9-9.6-2.9-14.6-2.9c-6.4,0-11.6,1.6-15.5,4.9c-3.7,2.9-5.9,7.3-5.8,12
	c-0.1,4.8,2.2,9.4,6.2,12.2c4.1,3.1,10.8,5.4,20.2,6.9c4.5,0.8,7.6,1.6,9.1,2.4c1.4,0.6,2.3,2,2.3,3.5c0,1.7-1,3.2-2.5,4
	c-2.2,1.2-4.6,1.7-7,1.6c-3.1,0.1-6.2-0.7-8.8-2.4c-2.3-1.4-3.7-3.8-3.7-6.5h-13.4v19.8L372.6,96.2L372.6,96.2z M488.9,96.2V56.6
	h-16.1v25.6h-24.4V27.5h12.1v-14H415v14h11.8v54.8H415v14L488.9,96.2L488.9,96.2z M505.3,29.2c3.9,3.9,10.2,3.9,14.2,0
	c1.9-1.9,3-4.4,3-7.1c0-2.7-1-5.2-2.9-7.1c-3.9-3.9-10.3-4-14.2,0c0,0,0,0,0,0c-1.9,1.9-3,4.4-2.9,7.1
	C502.3,24.8,503.4,27.3,505.3,29.2L505.3,29.2z M503,51.9v31h-8.7v13.3H530V82.9h-8.6V38.6h-27.1v13.3L503,51.9L503,51.9z
	 M551.2,96.2v-2.9c2.5,2.8,7.2,4.2,14.1,4.2c7.4,0,13.1-1.8,17.1-5.4c4-3.5,6.2-8.5,6-13.8c0.1-3.7-1-7.2-3.2-10.2
	c-2.1-2.8-5.1-5-8.5-6.1c-5.2-1.6-10.5-2.9-15.9-3.7c-4.5-0.8-7.3-1.5-8.4-2.1c-1-0.4-1.6-1.4-1.6-2.5c0-2.9,2.7-4.4,8-4.4
	c7.2,0,11.4,2,12.6,6h13.1V38.6h-13.2v2c-4.6-1.9-9.6-2.9-14.6-2.9c-6.4,0-11.6,1.6-15.5,4.9c-3.7,2.9-5.9,7.3-5.8,12
	c-0.1,4.8,2.2,9.4,6.2,12.2c4.1,3.1,10.8,5.4,20.2,6.9c4.5,0.8,7.6,1.6,9.1,2.4c1.4,0.6,2.3,2,2.3,3.5c0,1.7-1,3.2-2.5,4
	c-2.2,1.2-4.6,1.7-7,1.6c-3.1,0.1-6.2-0.7-8.8-2.4c-2.3-1.4-3.7-3.8-3.7-6.5h-13.4v19.8L551.2,96.2L551.2,96.2z M601,51.9V82
	c0,10,5,15,15.1,15c4.8,0,9.5-1,13.9-2.9V81.4c-1.8,0.7-3.8,1.1-5.8,1.2c-2.1,0-3.4-0.4-4-1.2s-0.9-2.3-0.9-4.6v-25H630V38.6h-10.6
	V16.4L601,29.6v9h-7.3v13.3L601,51.9L601,51.9z M4.8,68.5h27.7c2.7,0,4.8,2.2,4.8,4.8v0c0,2.7-2.2,4.8-4.8,4.8H4.8
	C2.2,78.2,0,76,0,73.3v0C0,70.7,2.2,68.5,4.8,68.5z M4.8,82.3h34.3c2.7,0,4.8,2.2,4.8,4.8v0c0,2.7-2.2,4.8-4.8,4.8H4.8
	C2.2,92,0,89.8,0,87.2v0C0,84.5,2.2,82.3,4.8,82.3z M4.8,96.8h45.7c2.7,0,4.8,2.2,4.8,4.8v0c0,2.7-2.2,4.8-4.8,4.8H4.8
	c-2.7,0-4.8-2.2-4.8-4.8v0C0,98.9,2.2,96.8,4.8,96.8z M94.5,107V96.2c9.7-1.8,18.6-6.6,25.4-13.8c8.9-9.4,13.9-21.8,13.8-34.7
	c-0.3-11.6-4.7-22.8-12.4-31.4C111.8,5.6,99.3,0.1,84.8,0S57.4,6.5,48.1,16.5S35.6,41,35.9,49.4s2.7,21.4,13,32.3
	c6.6,6.7,14.7,11.5,23.8,14.1V107H94.5L94.5,107z M94.5,67.8v6.1c10.6-3.9,17.6-14.1,17.4-25.4c0.1-18.5-16.6-27.2-26.8-27
	c-9.5,0.2-26.3,6.1-27.3,26.5c0,0-1.3,16.1,15.2,25.1v-5"/>
</svg>
