<svg xmlns="http://www.w3.org/2000/svg" viewBox="0 0 895.99 212.99"><defs><style>.cls-1{fill:#fff;fill-rule:evenodd;}</style></defs><title>QL_WHITE_TEXT</title><g id="Layer_2" data-name="Layer 2"><g id="WHITE"><path id="QUDOSLIST" class="cls-1" d="M67.6,164.77s53.51.39,73.24-65.89c0,0,27.49-87.12-41.17-97.78,0,0-66.88-14.49-92.16,61.64s20.66,98.88,29.13,99.9c0,0-22.86,2.17-18.36,19.14s12.1,22,21.74,13.81,13.24-12.75,13.24-12.75,7.86-.32,32.6,21.25,48.84.75,52.54-28.7L127.52,169s-5.07,13.5-20.18,9.56S67.6,164.77,67.6,164.77ZM109.89,39.54s11,18.77-6.42,72.92c0,0-14.14,34.09-45.8,32.62,0,0-35.54-1.8-24.42-63.29,0,0,5.1-35.93,33-54.93,0,0,20.92-12.13,26.07,11.49,6,27.77-3.87,38.24-11.69,38S71.75,70.26,70.06,66s-5.15-8.76-11-5.06,1.28,17.17,6.21,24.15c6.47,9.17,33.2,11.11,40.2-7,8.2-21.22,4.43-38.54,4.43-38.54Zm45.8,44s-7-6.75,0-8,43-4,43-4,3.24,8.26,0,24-9,35-9,35-8,23.52,13,12c0,0,11.49-47,12-67,0,0,9-4.25,40-3l-11,63s-3.26,11.26,4,10,16-7,16-7-3.51-42.76,26-63c0,0,19.24-12.25,41,0,0,0,8-31.26,8-61,0,0,19.74-6.25,37-6,0,0,5,10.26-2,44s-14.76,73-16,88c0,0,.77,7.86,7,5s15-9,15-9-8.55-40.88,30-62a54.12,54.12,0,0,1,21-3c11.19.81,8.31-1.14,18-1s20.64,4.36,20,28c0,0,8.64,1.2,15-2,0,0-1.61-25.14,36-26s34.56,28.21,18,43c0,0,11.56,11.53,11,25s-16.11,29.71-40,30-44.11-10.81-37-23,17.39-19.31,23-13,9.39,15,12,21c0,0,6.56,2,7-5s-23.61-30-28-40c0,0-9.27,4.87-18,5,0,0-9.27,55.22-52,55,0,0-23.77.7-33-20,0,0-21.77,19.54-44,19,0,0-12.68,1-17-10,0,0-13.76,10.4-29,10s-23.91-8.18-26-18c0,0-23.74,18.74-46,19,0,0-13.6.88-17-11,0,0-16.17,12-34,11s-25.31-11.13-18-38S165.41,93.29,155.69,83.57Zm171,5s-7,36.56-8,55c0,0-9.83,7-13-1s-1.66-31.63,7-50c0,0,1.83-6.5,14-4Zm127,27s-5.76,29.77-25,31-5.43-65.93,4-59c0,0-6.67,29.35,21,28Zm75-12s12.48-11.59,7-17-19.19-3.08-16,5c0,0,2,6.34,9,12Zm191-32s6.67,8.5,2,27-15.58,51-5,47,11.92-1.25,17-5,12.42-14,19-8,11.92,15.75,14,21c0,0,6.92.75,7-4s-4.58-11-10-17-20.58-22-21-36,14.17-26.27,35-26,32.17,5.5,32,20a35.49,35.49,0,0,1-12,23s10.91,7.76,11,25c0,0,11.16-9.25,19-15,0,0,8.91-30.52,9-34l-15,2s-2.34-10.25,0-19h17v-26s13.66-6.5,39-8c0,0,4.66,6.25-1,34h19s1.66,7.5-3,17l-18-1s-7.09,26.76-9,38-5.34,29,13,16l5,11s-16.09,15.25-38,15-22.34-16.25-22-29c0,0-9.59,8.5-16,12s-12.84,9.76-19,12-32.34,11-54-5c0,0-5.33-5.76-10-2s-17.58,11.5-33,12-24.34-10.76-17-37,10.92-39,6-46-7.59-10,5-12,34-2,34-2Zm-12-16s22.17-1,22-21-18.83-16.75-22-17-22.33,2.75-22,20,22,18,22,18Zm80,48a18.43,18.43,0,0,0,9-12c1.93-8.59-11.77-10.75-16-6s3.85,11.66,7,18Zm-203-75s-9.71-8-1-11,46-4,46-4,18.54,17.4-31,117.05l25,6s26.29,6.4,29-11l13,4s-4.46,52.17-41,39l-35-17s-20,24.65-29,14-14-22.08-8-27,19-9,19-9a405.22,405.22,0,0,0,14-51c6.43-30.44,4.17-44.36-1-50Z"/></g></g></svg>